<svg width="24" height="24" viewBox="0 0 24 24" fill="none" xmlns="http://www.w3.org/2000/svg">
<g clip-path="url(#clip0_5029_1277)">
<path d="M0 4C0 1.79086 1.79086 0 4 0H20C22.2091 0 24 1.79086 24 4V20C24 22.2091 22.2091 24 20 24H4C1.79086 24 0 22.2091 0 20V4Z" fill="#F776BE"/>
<path fill-rule="evenodd" clip-rule="evenodd" d="M4.5922 12.9134C3.1363 12.3104 1.57586 12 0 12V4C2.62644 4 5.22716 4.51732 7.65367 5.52241C10.0802 6.52751 12.285 8.0007 14.1421 9.85787C15.9993 11.715 17.4725 13.9198 18.4776 16.3463C19.4827 18.7729 20 21.3736 20 24L12 24C12 22.4241 11.6896 20.8637 11.0866 19.4078C10.4835 17.9519 9.59959 16.629 8.48528 15.5147C7.37098 14.4004 6.04811 13.5165 4.5922 12.9134Z" fill="white" fill-opacity="0.7"/>
<path d="M24 12C20.8174 12 17.7652 10.7357 15.5147 8.48528C13.2643 6.23485 12 3.1826 12 1.81195e-06L24 0V12Z" fill="white" fill-opacity="0.7"/>
</g>
<defs>
<clipPath id="clip0_5029_1277">
<path d="M0 4C0 1.79086 1.79086 0 4 0H20C22.2091 0 24 1.79086 24 4V20C24 22.2091 22.2091 24 20 24H4C1.79086 24 0 22.2091 0 20V4Z" fill="white"/>
</clipPath>
</defs>
</svg>
