<svg width="16" height="16" viewBox="0 0 16 16" fill="none" xmlns="http://www.w3.org/2000/svg">
<path d="M7.78259 4.81441C7.19859 4.81441 6.29458 4.15041 5.34258 4.17441C4.08658 4.19041 2.93458 4.9024 2.28658 6.0304C0.982577 8.29442 1.95058 11.6384 3.22258 13.4784C3.84658 14.3744 4.58258 15.3824 5.55858 15.3504C6.49458 15.3104 6.84659 14.7424 7.98259 14.7424C9.11059 14.7424 9.43059 15.3504 10.4226 15.3264C11.4306 15.3104 12.0706 14.4144 12.6866 13.5104C13.3986 12.4704 13.6946 11.4624 13.7106 11.4064C13.6866 11.3984 11.7506 10.6544 11.7266 8.41442C11.7106 6.5424 13.2546 5.64641 13.3266 5.60641C12.4466 4.31841 11.0946 4.17441 10.6226 4.14241C9.39059 4.04641 8.35859 4.81441 7.78259 4.81441ZM9.86259 2.92641C10.3826 2.30241 10.7266 1.43041 10.6306 0.566406C9.88659 0.598406 8.99059 1.06241 8.45459 1.68641C7.97459 2.23841 7.55859 3.12641 7.67059 3.97441C8.49459 4.03841 9.34259 3.55041 9.86259 2.92641Z" fill="black"/>
</svg>
