<svg width="16" height="16" viewBox="0 0 16 16" fill="none" xmlns="http://www.w3.org/2000/svg">
<mask id="mask0_4798_22037" style="mask-type:luminance" maskUnits="userSpaceOnUse" x="0" y="0" width="16" height="16">
<path d="M16 0H0V16H16V0Z" fill="white"/>
</mask>
<g mask="url(#mask0_4798_22037)">
<path d="M15.68 8.18132C15.68 7.61404 15.6291 7.0686 15.5346 6.54492H8V9.63948H12.3054C12.12 10.6395 11.5564 11.4868 10.7091 12.054V14.0613H13.2946C14.8073 12.6686 15.68 10.6176 15.68 8.18132Z" fill="#4285F4"/>
<path d="M7.99971 15.9995C10.1597 15.9995 11.9706 15.2831 13.2943 14.0614L10.7088 12.0541C9.99243 12.5341 9.07603 12.8177 7.99971 12.8177C5.91603 12.8177 4.15243 11.4104 3.52331 9.51953H0.850586V11.5923C2.16699 14.2068 4.87243 15.9995 7.99971 15.9995Z" fill="#34A853"/>
<path d="M3.5236 9.52092C3.3636 9.04092 3.27272 8.5282 3.27272 8.00092C3.27272 7.47364 3.3636 6.96092 3.5236 6.48092V4.4082H0.85088C0.30912 5.4882 0 6.71004 0 8.00092C0 9.2918 0.30912 10.5136 0.85088 11.5936L3.5236 9.52092Z" fill="#FBBC04"/>
<path d="M7.99971 3.18184C9.17427 3.18184 10.2287 3.58544 11.0579 4.37816L13.3524 2.0836C11.967 0.79272 10.156 0 7.99971 0C4.87243 0 2.16699 1.79272 0.850586 4.40728L3.52331 6.48C4.15243 4.58912 5.91603 3.18184 7.99971 3.18184Z" fill="#E94235"/>
</g>
</svg>
