<svg width="24" height="24" viewBox="0 0 24 24" fill="none" xmlns="http://www.w3.org/2000/svg">
<path fill-rule="evenodd" clip-rule="evenodd" d="M16.4998 4.20066C14.7168 3.17184 12.6348 2.78539 10.6013 3.10577C8.56777 3.42615 6.70553 4.43399 5.32513 5.96122C3.94474 7.48845 3.12963 9.44275 3.01574 11.4982C2.90186 13.5537 3.49607 15.5861 4.6993 17.2564C5.90252 18.9268 7.64202 20.1342 9.62772 20.6773C11.6134 21.2204 13.7253 21.0663 15.6111 20.2407C17.497 19.4152 19.0428 17.9681 19.9908 16.1408C20.9388 14.3134 21.2318 12.2163 20.8207 10.1992C20.7105 9.658 21.0598 9.12991 21.601 9.01964C22.1421 8.90937 22.6702 9.25868 22.7805 9.79984C23.2828 12.2653 22.9248 14.8284 21.7661 17.0618C20.6074 19.2952 18.7181 21.0639 16.4131 22.0729C14.1082 23.0819 11.5271 23.2702 9.10011 22.6064C6.67315 21.9427 4.54709 20.467 3.07648 18.4254C1.60587 16.3838 0.879611 13.8998 1.01881 11.3876C1.158 8.87533 2.15424 6.48674 3.84139 4.62013C5.52854 2.75352 7.80462 1.52172 10.29 1.13014C12.7755 0.738566 15.32 1.21089 17.4994 2.46834C17.9777 2.74435 18.1418 3.3559 17.8658 3.83427C17.5898 4.31264 16.9782 4.47668 16.4998 4.20066ZM22.7071 3.29241C23.0976 3.68293 23.0976 4.3161 22.7071 4.70662L12.7071 14.7066C12.3166 15.0971 11.6834 15.0971 11.2929 14.7066L8.29289 11.7066C7.90237 11.3161 7.90237 10.6829 8.29289 10.2924C8.68342 9.90188 9.31658 9.90188 9.70711 10.2924L12 12.5853L21.2929 3.29241C21.6834 2.90188 22.3166 2.90188 22.7071 3.29241Z" fill="#F776BE"/>
</svg>
